<svg id="Group_8394" data-name="Group 8394" xmlns="http://www.w3.org/2000/svg" xmlns:xlink="http://www.w3.org/1999/xlink" width="367.098" height="365.391" viewBox="0 0 367.098 365.391">
  <defs>
    <clipPath id="clip-path">
      <rect id="Rectangle_17624" data-name="Rectangle 17624" width="367.098" height="365.391" fill="none"/>
    </clipPath>
  </defs>
  <g id="Group_8393" data-name="Group 8393" clip-path="url(#clip-path)">
    <path id="Path_10594" data-name="Path 10594" d="M367.1,355.435c-3.164,7.59-8.992,10.055-16.988,9.953-22.457-.287-44.921-.108-67.382-.088a22.962,22.962,0,0,1-6.394-.668c-5.9-1.692-9.576-7.383-9-13.787a12.532,12.532,0,0,1,11.087-11.306,43.515,43.515,0,0,1,5-.232c18.16-.015,36.321-.069,54.48.055,2.687.019,3.365-.666,3.357-3.362q-.148-50.357.006-100.713c.009-2.75-.742-3.3-3.364-3.291q-64.695.129-129.39.054c-8.192,0-13.454-4.183-14.494-11.4a12.731,12.731,0,0,1,11.238-14.384c1.423-.139,2.863-.135,4.3-.135,47.192-.007,94.385.088,141.576-.1,7.932-.031,13.266,2.789,15.965,10.293Z" fill="#ededed"/>
    <path id="Path_10595" data-name="Path 10595" d="M98.125,135.426c7.69,18.2,15.289,36.44,23.123,54.578a20.1,20.1,0,0,0,13.459,11.932c1.933.532,2.418,1.469,2.2,3.291-.3,2.488-.331,5.01-.661,7.494-.3,2.242.238,3.272,2.722,3.881,12.613,3.09,25.167,6.422,37.724,9.736,9.273,2.447,14.316,8.367,15.532,17.851Q198.5,293.2,204.851,342.2c1.483,11.427-5.723,21.33-16.679,22.766-10.928,1.433-20.4-5.959-21.867-17.288q-5.464-42.078-10.753-84.178c-.192-1.512-.352-2.7-2.21-3.091-2.17-.459-1.6,1.4-1.942,2.2-2.454,5.7-6.768,8.419-12.891,8.422-12.785.006-25.572.077-38.356-.056-2.7-.029-3.649.518-3.618,3.472.163,15.651.119,31.305.027,46.957a5.437,5.437,0,0,0,2.337,4.771c9.406,7.551,18.716,15.222,28.057,22.853a8.94,8.94,0,0,1,3.195,9.921,8.229,8.229,0,0,1-7.227,6.107c-3.2.467-5.774-.923-8.151-2.871-5.813-4.765-11.64-9.514-17.755-14.51-.809,3.093-.168,6.023-.457,8.876a9.317,9.317,0,0,1-7.832,8.547,9.127,9.127,0,0,1-9.416-5.63c-.941-2.174-.516-4.473-.6-6.723-.055-1.534-.01-3.071-.01-4.631-1.424-.3-2.012.8-2.778,1.419-5.4,4.342-10.725,8.77-16.128,13.1-4.323,3.468-9.979,3.154-13.135-.625-3.224-3.861-2.626-9.445,1.673-13.018q14.052-11.679,28.3-23.117a5.147,5.147,0,0,0,2.105-4.529c-.073-15.653-.1-31.306.022-46.958.021-2.628-.564-3.453-3.325-3.423-13.859.149-27.721.085-41.582.063-9.544-.016-14.117-4.377-15.274-13.794-3.157-25.707-6.491-51.392-9.752-77.086C5.919,157.185,2.961,134.219.118,111.239-.829,103.584,4.048,97.276,11.3,96.37c7.348-.918,13.535,3.923,14.511,11.564q6.168,48.306,12.245,96.623c1.622,12.789,3.3,25.57,4.889,38.362.165,1.327.285,2.234,1.988,2.2,4.732-.086,9.467-.03,14.81-.03-4.783-5.853-5.1-12.315-5.14-18.931q-.332-56.1-.8-112.195c-.078-11.19,4.571-19.547,14.947-24.3,4.964-2.277,10.264-1.933,15.507-1.569,12.034.835,24.069,1.687,36.092,2.678,14.422,1.188,24.025,12.8,22.7,27.224-.228,2.472-.378,4.952-.608,8.01l-17.873-13.152-.6.557c.472.7.9,1.427,1.421,2.088,9.137,11.65,18.319,23.266,27.393,34.966a4.538,4.538,0,0,0,4.462,2.044c16.423-1.389,32.864-2.569,49.276-4.067,7.187-.657,13.64.161,18.259,6.382,4.7,6.325,4.149,13.039-1.606,21.353.938.795,2.053.376,3.062.379,11.71.036,23.421-.065,35.129.1,2.441.033,3.252-.909,3.81-3.006q9.7-36.437,19.5-72.846c.652-2.433,1.353-4.809,3.507-6.466,2.768-2.13,5.745-2.848,9.024-1.491a8.632,8.632,0,0,1,5.486,7.71,12.867,12.867,0,0,1-.652,4.574q-10.824,40.02-21.572,80.061c-1.981,7.359-4.34,9.227-11.787,9.23q-38,.018-76,0c-7.515-.005-10.242-2.4-11-9.947-.2-2.025-1.407-1.236-2.24-1.178-8.1.566-16.2,1.21-24.3,1.827-2.144.163-4.288.319-6.433.456-6.365.408-11.276-2.189-15.161-7.14Q116.3,156.463,98.971,134.562c-.926-.342-1.113.039-.846.864" fill="#ededed"/>
    <path id="Path_10596" data-name="Path 10596" d="M72.944,35.746C72.988,16.163,89.223-.064,108.706,0a36.116,36.116,0,0,1,35.671,35.881,35.717,35.717,0,1,1-71.433-.135" fill="#ededed"/>
    <path id="Path_10597" data-name="Path 10597" d="M98.125,135.426c-.663-.635-1.366-1.645-.576-2.192s1.1.673,1.422,1.328l-.846.864" fill="#ededed"/>
  </g>
</svg>
